<svg xmlns="http://www.w3.org/2000/svg" viewBox="0 0 152.13 97.13"><defs><style>.cls-1{fill:#fefefe;}.cls-2{fill:#67b954;}.cls-3{fill:#e62e1a;}.cls-4{fill:#fea042;}.cls-5{fill:#fe9f40;}.cls-6{fill:#fea247;}.cls-7{fill:#e6301c;}.cls-8{fill:#fea145;}.cls-9{fill:#fea246;}.cls-10{fill:#fea349;}.cls-11{fill:#ea9a19;}.cls-12{fill:#3784c3;}.cls-13{fill:#fea74f;}.cls-14{fill:#6c398f;}.cls-15{fill:#297c2e;}.cls-16{fill:#669bc9;}.cls-17{fill:#fefefd;}.cls-18{fill:#fefdfd;}</style></defs><title>资源 1</title><g id="图层_2" data-name="图层 2"><g id="图层_1-2" data-name="图层 1"><path class="cls-1" d="M77,1c24.33,0,48.67,0,73-.07,2.5,0,3.07.57,3.07,3.07q-.15,45.5,0,91c0,2.5-.57,3.07-3.06,3.06q-73-.13-146,0C1.5,98.07.93,97.5.94,95q.15-45.5,0-91C.93,1.5,1.5.92,4,.93,28.33,1,52.67,1,77,1Z" transform="translate(-0.94 -0.93)"/><path class="cls-2" d="M78.24,39.94c8.93,8.71,10.22,19.68,9.16,31.29-.16,1.75-.69,3.73-3.14,3.88a4.88,4.88,0,0,1-4.93-2.72A21.33,21.33,0,0,1,77,62.29c0-4.32.34-8.67-.66-12.94-.36-1.52.11-3.66-2.13-4-1.87-.3-3.06,1.17-4.05,2.49-2.8,3.72-5.43,7.57-8.29,11.24-.93,1.2-1.85,3.43-3.7,2.58-1.6-.74-1.33-3-1.08-4.58,1.3-8.52,5.86-14.67,13.72-18.31l.67.12C73.45,40.92,76,39.49,78.24,39.94Z" transform="translate(-0.94 -0.93)"/><path class="cls-3" d="M70.85,30.67c-4-.61-7.83-1.42-11.34-3.51A13.81,13.81,0,0,1,54.45,8.5c1.43-2.67,2.67-2.64,4.14-.29s2.72,4.56,4,6.91a40.23,40.23,0,0,0,9.79,11.8A2.73,2.73,0,0,1,71.93,30,2.25,2.25,0,0,1,70.85,30.67Z" transform="translate(-0.94 -0.93)"/><path class="cls-4" d="M73.54,85.69c-4.92,0-9.84,0-14.76,0-1.25,0-3.17.32-3.12-1.45s2-1.39,3.24-1.4c4.32,0,8.64-.06,13,0,3.18.07,4.75,1.4,4.45,5-.29,3.43.94,7.3-4.73,7.06-4-.17-8-.08-12,0-2.89,0-4.26-1.43-4.48-4.18-.26-3.23,2-3.37,4.27-3.4,4.72-.06,9.44,0,14.15,0Z" transform="translate(-0.94 -0.93)"/><path class="cls-5" d="M41,94.89c-1.65,0-3.31-.05-5,0-3.78.15-5.57-2.17-5.8-5.42C30,86,31.67,83.23,35.53,83a88,88,0,0,1,11.41,0c3.88.23,5.44,2.91,5.26,6.48s-2,5.49-5.72,5.49Z" transform="translate(-0.94 -0.93)"/><path class="cls-6" d="M106.38,92.09c4.57,0,9.13-.07,13.7,0,1.69,0,4.72-.8,4.68,1.29,0,2.79-3.15,1.31-4.85,1.42-3.8.25-7.63,0-11.44.11-3,.1-4.83-.94-5.09-4.06-.29-3.54,2.34-3.52,4.66-3.57,4.48-.09,9-.07,13.43,0,1.23,0,3.08,0,2.94,1.78-.11,1.48-1.81,1-2.86,1-5,0-10.09,0-15.13,0Z" transform="translate(-0.94 -0.93)"/><path class="cls-7" d="M79.12,27.93c3.62-1.63,6.06-4.5,8.08-7.77a15.23,15.23,0,0,1,4.13-4.86c1.63-1.12,3.56-2.61,5.21-.51,1.33,1.69.76,3.68-.76,5.36-4.34,4.78-9.86,7.65-15.75,10a1,1,0,0,1-1.31-.17A1.59,1.59,0,0,1,79.12,27.93Z" transform="translate(-0.94 -0.93)"/><path class="cls-8" d="M138.94,82.86c2.83,0,5.65,0,8.48,0,.89,0,1.77.36,1.8,1.33s-.92,1.28-1.75,1.38a11.82,11.82,0,0,1-3,.11c-3.66-.52-4.62,1.23-4.37,4.57.11,1.44,1,4-1.16,4.18s-1.79-2.49-1.59-3.95c.57-4.23-1.5-5.17-5.16-4.83-1.31.12-3.62.62-3.5-1.48.11-1.92,2.36-1.28,3.75-1.34,2.16-.09,4.32,0,6.48,0Z" transform="translate(-0.94 -0.93)"/><path class="cls-9" d="M15.51,94.91c-2.59-.52-6,1.15-8.63-1.36-1-.91-2-2.33-1.19-3.47,1.43-1.92,1.91.55,2.9,1,4.74,2,9.73,1.3,14.53.52,2.35-.38,1.51-3.28,1.72-5.18.13-1.19-.47-3.18,1.44-3.06,1.56.1,1.39,2,1.43,3.28.16,5.77-2.17,8.26-7.8,8.3C18.58,94.92,17.25,94.91,15.51,94.91Z" transform="translate(-0.94 -0.93)"/><path class="cls-10" d="M90.65,94.92H86.17c-6.31,0-9.13-4.15-6.9-10.16.21-.56.72-1.32,1.18-1.4.95-.15,1.4.67,1.5,1.55A8.56,8.56,0,0,1,82,87.38c-.78,4.27,1.46,5,5.07,4.75s7.29,0,10.94,0c1.06,0,2.26.32,2.3,1.42s-1.18,1.37-2.22,1.37Z" transform="translate(-0.94 -0.93)"/><path class="cls-11" d="M80.17,19.8c0,1.93-.53,4-3.29,4.31s-6-2.8-5.86-5.55,1.8-4.19,4.42-4.37S80.07,16.28,80.17,19.8Z" transform="translate(-0.94 -0.93)"/><path class="cls-12" d="M79.28,29.83a1.46,1.46,0,0,1,.75.27c.21,3.18,0,6.28-2,9a9.36,9.36,0,0,1-6.87,0,1.89,1.89,0,0,0-.42-.34c-.76-2.7-.34-5.38.06-8.07l.2-.3A14.11,14.11,0,0,1,79.28,29.83Z" transform="translate(-0.94 -0.93)"/><path class="cls-13" d="M114.3,85.73c-2.8,0-5.61,0-8.41,0-1,0-2.11-.24-2.12-1.5,0-1,.87-1.35,1.75-1.35q8.91,0,17.81,0c.88,0,1.74.33,1.83,1.29.12,1.32-.93,1.57-2,1.58C120.24,85.75,117.27,85.73,114.3,85.73Z" transform="translate(-0.94 -0.93)"/><path class="cls-14" d="M79.28,29.83a10.54,10.54,0,0,1-8.24.54l1.3-3.46a1.53,1.53,0,0,1,.59-.27c2.15-.77,4,.38,5.9,1l.29.31Z" transform="translate(-0.94 -0.93)"/><path class="cls-15" d="M71.21,39.08c2.29-1.16,4.58-.67,6.87,0a5.36,5.36,0,0,1,.16.87C75.64,41.76,73.05,43.42,71.21,39.08Z" transform="translate(-0.94 -0.93)"/><path class="cls-16" d="M78.83,27.62c-2.15.82-4-.13-5.9-1C75.5,23.32,77.24,25,78.83,27.62Z" transform="translate(-0.94 -0.93)"/><path class="cls-17" d="M73.39,91.8h-15v-1h15Z" transform="translate(-0.94 -0.93)"/><path class="cls-18" d="M41.43,92.09h-5c-2.14,0-3.53-.78-3.51-3.17A2.82,2.82,0,0,1,36,85.81c3.48-.08,7-.08,10.45,0,2.14,0,3.5,1.22,3.34,3.44-.14,1.94-1.44,2.87-3.4,2.85C44.75,92.08,43.09,92.09,41.43,92.09Z" transform="translate(-0.94 -0.93)"/></g></g></svg>